<?xml version="1.0" encoding="UTF-8" standalone="no"?>
<svg width="19px" height="14px" viewBox="0 0 19 14" version="1.1" xmlns="http://www.w3.org/2000/svg" xmlns:xlink="http://www.w3.org/1999/xlink">
    <!-- Generator: Sketch 39.1 (31720) - http://www.bohemiancoding.com/sketch -->
    <title>Shape</title>
    <desc>Created with Sketch.</desc>
    <defs></defs>
    <g id="Dashboard_Cards" stroke="none" stroke-width="1" fill="none" fill-rule="evenodd">
        <g id="101_Cards_Dashboard" transform="translate(-1041.000000, -37.000000)" fill="#FFFFFF">
            <g id="Group-38" transform="translate(981.000000, 0.000000)">
                <g id="Page-1-Copy-13" transform="translate(60.000000, 35.000000)">
                    <g id="Group-4">
                        <path d="M17.8047168,2.47657506 C17.6805121,2.40376844 17.5140923,2.35294118 17.2844721,2.35294118 L1.30451608,2.35294118 C1.07465186,2.35294118 0.907744077,2.40376844 0.784027344,2.47657506 C0.323322823,2.70296243 0,3.21975205 0,3.82143694 L0,13.5544455 C0,14.1553062 0.323322823,14.671821 0.783295292,14.8993074 C0.907012025,14.9718392 1.07416382,15.0229413 1.30427207,15.0229413 L17.2842281,15.0229413 C17.5136043,15.0229413 17.680268,14.9715645 17.8044728,14.8998569 C18.2654213,14.67292 18.5885001,14.1561304 18.5885001,13.5547202 L18.5885001,3.82116219 C18.5887442,3.21975205 18.2656654,2.70296243 17.8047168,2.47657506 L17.8047168,2.47657506 Z M12.5193037,8.68766647 L17.6861244,3.93298217 L17.6861244,13.4423508 L12.5193037,8.68766647 L12.5193037,8.68766647 Z M16.872327,3.36921167 L9.66893852,9.99818561 C9.48080124,10.1709983 9.1076989,10.1709983 8.91956162,9.99818561 L1.71666118,3.36921167 L16.872327,3.36921167 L16.872327,3.36921167 Z M0.902619715,13.443175 L0.902619715,3.93298217 L6.06968445,8.68876544 L0.902619715,13.443175 L0.902619715,13.443175 Z M1.71690519,14.0061213 L6.7829468,9.34484923 L8.34856132,10.7853213 C8.60453539,11.0207752 8.94030309,11.1512776 9.29437208,11.1512776 C9.64868509,11.1512776 9.98445279,11.0207752 10.2401828,10.7853213 L11.8065294,9.34402501 L16.872327,14.0061213 L1.71690519,14.0061213 L1.71690519,14.0061213 Z" id="Shape"></path>
                    </g>
                </g>
            </g>
        </g>
    </g>
</svg>