<?xml version="1.0" encoding="UTF-8"?>
<svg width="200px" height="34px" viewBox="0 0 200 34" version="1.1" xmlns="http://www.w3.org/2000/svg" xmlns:xlink="http://www.w3.org/1999/xlink">
    <!-- Generator: Sketch 40.1 (33804) - http://www.bohemiancoding.com/sketch -->
    <title>Group 6</title>
    <desc>Created with Sketch.</desc>
    <defs>
        <polygon id="path-1" points="0 0.0760666667 0 19.9456564 26.3233372 19.9456564 26.3233372 0.0760666667 2.87322874e-20 0.0760666667"></polygon>
        <circle id="path-3" cx="17" cy="17" r="17"></circle>
        <mask id="mask-4" maskContentUnits="userSpaceOnUse" maskUnits="objectBoundingBox" x="0" y="0" width="34" height="34" fill="white">
            <use xlink:href="#path-3"></use>
        </mask>
    </defs>
    <g id="Page-1" stroke="none" stroke-width="1" fill="none" fill-rule="evenodd">
        <g id="417_StyleGuide-Copy-23" transform="translate(-523.000000, -235.000000)">
            <g id="Group-6" transform="translate(523.000000, 235.000000)">
                <path d="M107.423801,15.3245333 C106.808628,15.3245333 106.159533,15.4616615 105.73764,15.6264308 L105.73764,23.5303282 C106.06307,23.6401744 106.678597,23.7220205 107.29483,23.7220205 C109.498288,23.7220205 110.795417,22.1579692 110.795417,19.4136103 C110.795417,16.8070974 109.563657,15.3245333 107.423801,15.3245333 L107.423801,15.3245333 Z M106.937245,27.2356615 C104.344401,27.2356615 101.849081,26.7417128 100.388707,26.164841 L100.388707,5.36227692 L105.73764,5.36227692 L105.73764,12.3612 C106.418889,12.1138667 107.585986,11.9214564 108.493376,11.9214564 C113.032443,11.9214564 116.144703,14.5021231 116.144703,19.0298667 C116.144703,24.5731487 112.870611,27.2356615 106.937245,27.2356615 L106.937245,27.2356615 Z" id="Fill-1" fill="#FFFFFF"></path>
                <path d="M126.841191,20.1009385 C123.956838,20.2104256 121.785888,20.4846821 121.785888,22.2407846 C121.785888,23.4487333 122.984433,24.1070923 124.897089,24.1070923 C125.642293,24.1070923 126.48608,23.9972462 126.841191,23.887759 L126.841191,20.1009385 Z M125.05892,27.2355538 C119.547802,27.2355538 116.825281,25.5067333 116.825281,22.3506308 C116.825281,18.4263231 121.558334,17.5206308 126.841191,17.2725795 L126.841191,16.6975026 C126.841191,15.5175538 125.869493,14.9679641 124.055068,14.9679641 C122.368907,14.9679641 120.358375,15.4346308 119.094461,15.8747333 L117.797685,12.855041 C119.353462,12.3330923 121.515932,11.6804769 124.703456,11.6804769 C129.468663,11.6804769 131.867521,13.3209897 131.867521,17.2456564 L131.867521,26.1650923 C130.538591,26.7416051 127.846811,27.2355538 125.05892,27.2355538 L125.05892,27.2355538 Z" id="Fill-3" fill="#FFFFFF"></path>
                <path d="M143.732379,26.9060154 L143.732379,17.3009385 C143.732379,16.0657077 143.043003,15.2547846 141.130348,15.2547846 C140.138156,15.2547846 139.258327,15.6263231 139.258327,15.6263231 L139.258327,26.9060154 L133.909041,26.9060154 L133.909041,12.855041 C135.85385,12.2236051 138.155892,11.6804769 141.20349,11.6804769 C146.682101,11.6804769 149.081312,13.5686821 149.081312,16.7786308 L149.081312,26.9060154 L143.732379,26.9060154 Z" id="Fill-5" fill="#FFFFFF"></path>
                <polygon id="Fill-7" fill="#FFFFFF" points="161.853736 26.9060154 156.504096 19.5240667 156.439434 19.5240667 156.439434 26.9060154 151.155516 26.9060154 151.155516 5.36216923 156.439434 5.36216923 156.439434 18.4521692 156.504096 18.4521692 161.336086 12.113759 167.364501 12.113759 161.918751 19.0024769 167.818549 26.9060154"></polygon>
                <polygon id="Fill-9" fill="#FFFFFF" points="90.3257304 32.8066564 84.7181489 32.8066564 87.3435005 26.9058359 80.7631609 12.1135795 86.5820425 12.1135795 90.1313907 22.6214769 93.6475245 12.1135795 99.4671129 12.1135795"></polygon>
                <g id="Group-13" transform="translate(39.000000, 6.960503)">
                    <mask id="mask-2" fill="white">
                        <use xlink:href="#path-1"></use>
                    </mask>
                    <g id="Clip-12"></g>
                    <polygon id="Fill-11" fill="#FFFFFF" mask="url(#mask-2)" points="23.5029393 0.0760666667 17.2773578 0.0760666667 13.1612446 12.3501179 9.04583808 0.0760666667 2.82060995 0.0760666667 -0.000141337907 19.9456564 5.08979005 19.9456564 6.71022916 6.28811795 11.4761434 19.9456564 14.8474058 19.9456564 19.6126134 6.28811795 21.2337592 19.9456564 26.3233372 19.9456564"></polygon>
                </g>
                <path d="M76.0163273,20.1009385 C73.1312672,20.2104256 70.960317,20.4846821 70.960317,22.2407846 C70.960317,23.4487333 72.1592158,24.1070923 74.071871,24.1070923 C74.8170751,24.1070923 75.6601557,23.9972462 76.0163273,23.887759 L76.0163273,20.1009385 Z M74.2337029,27.2355538 C68.7225846,27.2355538 65.9997098,25.5067333 65.9997098,22.3506308 C65.9997098,18.4263231 70.733823,17.5206308 76.0163273,17.2725795 L76.0163273,16.6975026 C76.0163273,15.5175538 75.0439225,14.9679641 73.2294971,14.9679641 C71.5436892,14.9679641 69.5328041,15.4346308 68.2695966,15.8747333 L66.9721146,12.855041 C68.5278916,12.3330923 71.1543033,11.6804769 73.877178,11.6804769 C78.6430923,11.6804769 81.0412432,13.3209897 81.0412432,17.2456564 L81.0412432,26.1650923 C79.7133736,26.7416051 77.0215931,27.2355538 74.2337029,27.2355538 L74.2337029,27.2355538 Z" id="Fill-14" fill="#FFFFFF"></path>
                <path d="M169.052782,24.3353641 C173.192216,20.6081333 177.958484,16.2437231 177.958484,12.1022359 C177.958484,10.0313128 176.767005,9.20351795 175.293204,9.20351795 C173.474539,9.20351795 172.125822,10.0952103 171.05978,11.1785949 L168.801907,8.15208205 C170.401146,6.62285128 172.439592,5.31690256 175.982933,5.31690256 C180.812096,5.31690256 183.101063,7.99269744 183.101063,11.5285949 C183.101063,15.8614154 179.68316,19.5886462 175.700611,23.1888 C175.732058,23.1888 177.080422,23.0610051 177.989931,23.0610051 L183.571365,23.0610051 L183.571365,26.9156718 L169.052782,26.9156718 L169.052782,24.3353641 Z" id="Fill-16" fill="#FFFFFF"></path>
                <path d="M185.29491,22.2007949 L185.29491,11.3055641 L190.061178,11.3055641 L190.061178,21.1813077 C190.061178,22.6150513 190.562928,23.2841795 191.911645,23.2841795 C193.291103,23.2841795 194.357144,22.0098205 194.670914,21.6275128 L194.670914,11.3055641 L199.437181,11.3055641 L199.437181,22.0417692 C199.437181,24.2397692 199.656962,25.8964359 199.876389,26.9159231 L195.172663,26.9159231 C195.047226,26.5016667 194.890341,25.4825385 194.858893,24.8769487 C194.012279,25.9922821 192.413394,27.2978718 189.935741,27.2978718 C186.517837,27.2978718 185.29491,25.0998718 185.29491,22.2007949" id="Fill-18" fill="#FFFFFF"></path>
                <g id="Group-Copy-2">
                    <use id="Oval" stroke="#FFFFFF" mask="url(#mask-4)" stroke-width="2.6816901" xlink:href="#path-3"></use>
                    <path d="M10.1836813,16.1850512 C8.97103115,15.8773882 7.90408113,17.2949171 7.31293314,18.3721176 C7.51630626,16.904451 9.317069,14.5008809 10.1836813,16.1850512 Z M7.5176722,16.2040428 C7.926695,14.8093036 8.88740534,14.2950126 9.3981147,14.7075089 C8.70376245,14.9323688 8.19229423,15.3418266 7.5176722,16.2040428 Z M10.6138762,18.4448173 C11.2331018,17.9160926 11.1731523,17.1336409 10.2048534,16.8791542 C9.48925318,16.697595 7.94650112,17.9912992 7.78258845,19.4278197 C8.39726094,18.6309344 10.1828466,17.171624 10.6138762,18.4448173 Z M20.3423204,22.1618426 C20.4515955,20.321182 18.6698042,19.4612448 18.3283195,17.5856397 C17.9944233,15.702438 21.1117993,12.6964562 19.1418119,9.61678708 C22.8594422,12.615932 19.9477159,14.3897424 21.8205698,16.8829525 C21.0973811,16.6694876 20.3749512,16.016938 20.1579187,15.6788885 C19.1144932,17.0569151 22.7213306,18.9461941 20.3423204,22.1618426 Z M17.7021883,8.71309336 C18.1309413,8.22766944 17.7363367,7.56220568 15.9674459,7.34190374 C17.8107045,8.244382 14.8413052,8.43429746 14.7418952,9.98704626 C13.7713197,10.3729545 12.9950112,9.73787717 12.5176914,10.1739231 C12.0532722,10.5909774 11.5129675,10.3114219 11.6700505,9.81612234 C11.1115332,10.1078325 11.2200495,10.863696 11.7671839,11.0991912 C11.8757001,11.1546465 11.970557,11.2564412 11.8916361,11.3346864 C11.295935,11.8968361 11.0166764,12.3830197 11.6374197,12.9436501 C11.9781456,12.3131308 12.1481291,12.0958675 12.5298331,11.7745306 C12.8849772,12.0221803 13.5125502,11.8580934 14.3601912,10.9320656 C14.3981339,10.8842069 14.4542892,10.9054774 14.434559,10.9586537 C13.7644901,13.2680257 12.0532722,13.6455777 11.5015847,13.5339074 C11.8362397,14.0307262 14.0111179,14.3406682 14.2820291,13.3652624 C14.905049,11.1713591 17.0192188,10.2157045 15.1918962,10.2506489 C15.6836342,9.67482524 17.3462853,9.12710906 17.7021883,8.71309336 Z M14.3589011,7.35398237 C14.7975193,7.35626135 15.5525799,7.66240507 15.2452437,8.01488816 C14.2162364,8.98041836 12.8229787,8.58995217 11.7188448,9.55624203 C12.1688458,8.34534106 14.1896765,8.17593647 14.3589011,7.35398237 Z M18.6229828,7.53356643 C19.5078077,8.10027415 19.9168305,8.48466304 20.4981133,9.17063768 C20.609665,8.23245531 20.0739134,6.37052415 19.2907752,5.9435942 C18.9492904,5.75671739 18.4575525,7.05346014 18.6229828,7.53356643 Z M4.51602154,15.057865 C5.08212732,13.5636101 6.4746261,11.7723275 8.7238721,10.4307647 C9.24217001,9.09300024 9.07294537,8.17456908 14.5238003,6.0642285 C14.6588765,5.25518865 14.6323165,4.29345676 14.8645262,4.29345676 C15.0937003,4.29345676 15.8996043,4.64669952 16.4740574,5.48156787 C16.7138556,5.45649903 16.9248173,5.43067053 17.0743117,5.41015966 C17.1691686,4.93840966 17.4977527,3.64622488 17.9219526,2.98228043 C18.3135218,2.369993 19.0731356,2.30922005 20.049023,3.10914396 C21.0658886,3.94477198 21.7792122,4.28661981 23.1709522,6.0642285 C24.3449007,6.59295314 26.1866416,7.26905217 27.7764427,9.21910411 C27.0866436,8.76634565 26.3027464,8.59390242 25.661514,8.51717657 C26.9591559,9.65515 27.8181797,11.5360727 27.1625291,14.2830099 C26.9105892,11.7145932 25.0202816,10.64347 23.867581,9.82303527 C24.495154,11.9911101 21.7792122,11.2443626 20.9566135,9.61716691 C21.2275247,9.70376836 21.5090599,9.68933478 21.6775257,9.58070314 C21.5902574,6.26781787 20.0338459,4.3663843 19.3402525,3.78448333 C18.4516334,3.05368865 17.9750725,4.82446039 17.6753248,6.1637442 C17.5781914,6.6096657 17.1949696,6.9241657 16.7138556,6.90745314 C16.8231307,6.74868382 16.9430298,6.31643623 16.9635189,6.18653406 C15.5930269,6.28984807 14.0449628,7.10192657 13.0956353,7.53037585 C10.6893064,8.61821159 10.0822224,9.16668744 9.55026511,10.9997514 C7.64022727,11.8042333 5.43499486,14.0163686 4.51602154,15.057865 Z M28.8486288,10.3989349 C30.0756972,14.67811 29.726624,18.8000351 28.4661659,21.2575412 C28.6232489,19.7154277 27.2709694,17.459232 27.817345,14.8262441 C25.2524153,17.3156559 29.2576516,23.430174 23.444064,27.4366306 C24.3129529,26.0411318 24.7075575,22.5596016 24.4002213,21.2947646 C24.7075575,21.4163105 25.0202057,21.8006994 25.2182669,22.1265943 C25.7016574,20.5335835 25.7654013,18.2637139 24.8509811,15.9794107 C25.165147,16.0181535 25.8185211,16.3060653 26.1190277,16.5947368 C26.2616924,13.0524337 23.6762737,12.7865521 23.1928831,11.8240605 C23.1928831,12.8587199 24.4002213,13.7277731 24.6180126,15.0776921 C23.7734071,14.67811 23.1579757,14.6294917 22.722393,14.67811 C23.3757671,15.1513793 24.830492,17.9704844 24.4002213,20.233517 C23.7734071,19.7040327 23.1928831,19.4609409 22.56531,19.4146016 C23.3355478,20.5822018 23.6497137,23.6451583 22.6867268,25.0398975 C22.6594081,24.7253975 22.5440621,23.8122839 22.183606,23.430174 C21.7282931,25.1394132 20.389673,25.8671692 19.4744939,26.0775955 C20.6150529,24.8872054 20.389673,22.7783842 18.7247453,22.2055992 C17.2237302,21.6920678 15.3136924,22.7115339 14.5419369,26.2925798 C13.4582921,26.6139168 10.205081,25.9127489 12.1492673,23.8191209 C13.3368753,24.216424 16.3525648,22.1934446 16.1469151,20.7812332 C15.8585502,18.8091511 14.0661349,18.1155798 12.6394876,18.1338117 C10.8812208,18.1543226 9.6920951,19.7959518 8.25406502,20.5123129 C7.05203882,20.3307537 6.64529258,20.1590702 6.02986123,18.5569434 C5.95549345,17.5762199 6.99891897,16.8879663 6.97842989,15.8776161 C6.12699466,16.0599349 5.91375643,14.7700291 4.24882872,16.102476 C4.12058224,15.8609035 4.33913246,15.2903975 4.33913246,15.2903975 C3.72445997,15.8434313 3.60683746,16.5043371 3.59545463,16.6425955 C3.89596118,17.2343721 4.31636681,17.773732 5.13744784,18.3123322 C6.11712955,20.9362042 7.1264066,21.2317127 8.16527899,21.3266704 C8.34133333,21.5788781 9.11308879,22.4988286 10.0889762,22.6446837 C9.92506356,22.1524228 9.89774478,20.7599627 9.99943134,20.4112779 C12.1287783,18.2758685 13.7102319,19.5771692 13.9158816,20.1438769 C12.0248151,20.5335835 13.3641941,24.58486 10.2248113,22.7829421 C10.0965648,23.1946789 10.2726191,24.2285786 10.6695002,24.8294711 C10.989737,27.6060351 14.4751577,26.9230992 15.551214,27.4100424 C15.4381446,24.7162815 16.9232237,22.7457187 18.2072062,22.9082864 C19.4889122,23.0700943 19.8235672,25.166761 17.632753,27.150238 C18.1722989,27.4366306 20.5179195,27.0416064 21.7108394,26.1748322 C21.8231499,26.8592876 20.9413605,28.8860653 19.8425386,30.3104313 C29.0444134,28.2000907 33.1589248,18.2059796 28.8486288,10.3989349 Z M16.5417473,14.6045748 C16.8088642,14.9054008 18.3986653,17.3082112 16.5546478,20.3704081 C17.0608041,18.1195301 15.6614756,13.8168054 14.1141704,16.0145071 C15.1629079,16.4725832 15.5043926,17.3256835 15.225134,18.1537149 C14.7978987,17.3568296 13.702871,16.4915748 12.6260559,16.8501351 C12.08651,17.032454 11.370151,17.034733 10.8397114,16.2469636 C10.1423237,15.2244588 11.3102015,13.9619008 9.31744842,14.0644552 C11.726054,12.84064 11.0286663,15.2176219 12.1904732,15.4979371 C13.5412349,15.8230723 13.6983179,14.9889636 14.1604606,14.4496037 C14.5360937,14.0059612 15.225134,13.6641134 15.9498405,14.1449793 C16.2943606,13.0875301 15.7927575,11.42539 16.7747158,10.5434226 C17.1374484,10.221326 18.2947022,10.2585494 18.8949564,10.7371364 C18.0427623,10.7204238 17.040315,11.7383707 16.5417473,14.6045748 Z" id="Combined-Shape" fill="#FFFFFF"></path>
                </g>
            </g>
        </g>
    </g>
</svg>