<?xml version="1.0" encoding="UTF-8" standalone="no"?>
<svg width="121px" height="122px" viewBox="0 0 121 122" version="1.1" xmlns="http://www.w3.org/2000/svg" xmlns:xlink="http://www.w3.org/1999/xlink">
    <!-- Generator: Sketch 40 (33762) - http://www.bohemiancoding.com/sketch -->
    <title>Profile_Default</title>
    <desc>Created with Sketch.</desc>
    <defs>
        <ellipse id="path-1" cx="55.4478391" cy="55.4478391" rx="55.4478391" ry="55.4478391"></ellipse>
        <ellipse id="path-3" cx="55.4478391" cy="55.4478391" rx="55.4478391" ry="55.4478391"></ellipse>
        <circle id="path-5" cx="53.0245939" cy="52.4994929" r="52.4994929"></circle>
        <circle id="path-7" cx="53.5" cy="54.5" r="49.5"></circle>
        <mask id="mask-8" maskContentUnits="userSpaceOnUse" maskUnits="objectBoundingBox" x="-2" y="-2" width="103" height="103">
            <rect x="2" y="3" width="103" height="103" fill="white"></rect>
            <use xlink:href="#path-7" fill="black"></use>
        </mask>
    </defs>
    <g id="Login" stroke="none" stroke-width="1" fill="none" fill-rule="evenodd">
        <g id="Profile_Default">
            <g id="Group-25" transform="translate(4.000000, 4.000000)">
                <g id="Group-20">
                    <g id="_Corbis-42-26320706">
                        <mask id="mask-2" fill="white">
                            <use xlink:href="#path-1"></use>
                        </mask>
                        <use id="Mask" stroke="#E7E7E7" stroke-width="7" fill="#D8D8D8" xlink:href="#path-1"></use>
                        <mask id="mask-4" fill="white">
                            <use xlink:href="#path-3"></use>
                        </mask>
                        <use id="Mask" stroke="#E7E7E7" stroke-width="7" fill="#D8D8D8" xlink:href="#path-3"></use>
                    </g>
                </g>
                <g id="Group-12" transform="translate(2.000000, 2.000000)">
                    <g id="Group-19">
                        <g id="avatar" transform="translate(0.464798, 0.000000)">
                            <mask id="mask-6" fill="white">
                                <use xlink:href="#path-5"></use>
                            </mask>
                            <g id="Mask"></g>
                            <g mask="url(#mask-6)" id="Capa_1">
                                <g transform="translate(17.583556, 25.642619)">
                                    <g>
                                        <g id="Group" transform="translate(0.049313, 0.000000)" stroke="#D8D8D8" stroke-width="2" fill="#7D7D7D">
                                            <path d="M34.5732627,44.2120479 L34.8448249,44.2120479 L34.9466608,44.2120479 L35.1163871,44.2120479 C40.08937,44.12709 44.1118851,42.376959 47.0820966,39.029621 C53.6165621,31.6552825 52.5303133,19.0135594 52.4115048,17.8071584 C51.9871889,8.75065513 47.7100842,4.41780647 44.1797756,2.39581043 C41.5490168,0.883561295 38.4769694,0.0679662534 35.0484966,0 L34.9296881,0 L34.8617976,0 L34.7599618,0 C32.875999,0 29.175964,0.30584814 25.6286827,2.32784418 C22.0644289,4.34984022 17.7194336,8.68268888 17.2951177,17.8071584 C17.1763092,19.0135594 16.0900604,31.6552825 22.6245259,39.029621 C25.5777648,42.376959 29.6002799,44.12709 34.5732627,44.2120479 L34.5732627,44.2120479 Z M21.8268119,18.2319475 C21.8268119,18.1809728 21.8437846,18.1299981 21.8437846,18.096015 C22.4038816,5.91306405 31.0429541,4.60471367 34.7429891,4.60471367 L34.8108797,4.60471367 L34.9466608,4.60471367 C39.5292729,4.70666305 47.3197136,6.57573502 47.8458653,18.096015 C47.8458653,18.1469897 47.8458653,18.1979644 47.862838,18.2319475 C47.8798106,18.3508884 49.0678952,29.9051515 43.6705965,35.9881312 C41.5320442,38.4009332 38.680641,39.5903426 34.9296881,39.6243257 L34.8448249,39.6243257 L34.8448249,39.6243257 L34.7599618,39.6243257 C31.0259815,39.5903426 28.1576057,38.4009332 26.036026,35.9881312 C20.6556999,29.9391346 21.8098393,18.3338969 21.8268119,18.2319475 L21.8268119,18.2319475 Z" id="Shape"></path>
                                            <path d="M69.7235952,65.179637 L69.7235952,65.1286623 C69.7235952,64.9927298 69.7066225,64.8567973 69.7066225,64.7038733 C69.6047867,61.3395437 69.3841424,53.4724499 62.0180177,50.9576985 C61.9670998,50.9407069 61.8992092,50.9237154 61.8482913,50.9067238 C54.1936318,48.952694 47.8288927,44.5348876 47.7610021,44.4839129 C46.7256713,43.7532756 45.2999697,44.0081491 44.5701463,45.0446345 C43.8403229,46.0811198 44.0949124,47.5084111 45.1302433,48.2390484 C45.4187782,48.4429471 52.1738879,53.1496102 60.6262614,55.3245303 C64.580886,56.73483 65.0221746,60.9657293 65.140983,64.8398058 C65.140983,64.9927298 65.140983,65.1286623 65.1579557,65.2645949 C65.1749283,66.7938356 65.0730925,69.1556629 64.8015303,70.5149879 C62.051963,72.0782118 51.2743381,77.4815289 34.8787702,77.4815289 C18.5510929,77.4815289 7.70557746,72.0612202 4.93903754,70.4979964 C4.66747533,69.1386713 4.54866687,66.776844 4.58261215,65.2476033 C4.58261215,65.1116708 4.59958478,64.9757383 4.59958478,64.8228142 C4.71839325,60.9487378 5.15968182,56.7178385 9.11430638,55.3075387 C17.5666799,53.1326186 24.3217896,48.408964 24.6103245,48.2220568 C25.6456554,47.4914196 25.9002449,46.0641283 25.1704215,45.0276429 C24.4405981,43.9911575 23.0148966,43.7362841 21.9795657,44.4669213 C21.9116751,44.517896 15.5808813,48.9357025 7.89227647,50.8897323 C7.82438592,50.9067238 7.77346801,50.9237154 7.7225501,50.9407069 C0.356425389,53.4724499 0.135781101,61.3395437 0.0339452752,64.6868817 C0.0339452752,64.8398058 0.0339452752,64.9757383 0.0169726376,65.1116708 L0.0169726376,65.1626455 C-1.30073036e-13,66.0462068 -0.0169726376,70.5829542 0.882577154,72.8598237 C1.05230353,73.3016043 1.35781101,73.6754187 1.76515431,73.9302922 C2.27433344,74.2701234 14.4776599,82.0522594 34.8957429,82.0522594 C55.3138259,82.0522594 67.5171523,74.2531319 68.0263314,73.9302922 C68.4167021,73.6754187 68.7391822,73.3016043 68.9089086,72.8598237 C69.7575404,70.5999457 69.7405678,66.0631983 69.7235952,65.179637 L69.7235952,65.179637 Z" id="Shape"></path>
                                        </g>
                                    </g>
                                </g>
                            </g>
                        </g>
                        <use id="Oval-2" stroke="#7D7D7D" mask="url(#mask-8)" stroke-width="4" xlink:href="#path-7"></use>
                    </g>
                </g>
            </g>
        </g>
    </g>
</svg>