<?xml version="1.0" encoding="UTF-8" standalone="no"?>
<svg width="57px" height="57px" viewBox="0 0 57 57" version="1.1" xmlns="http://www.w3.org/2000/svg" xmlns:xlink="http://www.w3.org/1999/xlink">
    <!-- Generator: Sketch 40 (33762) - http://www.bohemiancoding.com/sketch -->
    <title>Search</title>
    <desc>Created with Sketch.</desc>
    <defs></defs>
    <g id="Dashboard_CASA" stroke="none" stroke-width="1" fill="none" fill-rule="evenodd">
        <g id="Search">
            <g id="Group-29">
                <circle id="Oval-1" fill="#FFC83D" cx="28.5" cy="28.5" r="28.5"></circle>
                <path d="M20.6806766,26.7079377 C20.6806766,23.3841849 23.3868196,20.6793655 26.7121988,20.6793655 C30.0375781,20.6793655 32.7437211,23.3841849 32.7437211,26.7079377 C32.7437211,30.0316906 30.0375781,32.73651 26.7121988,32.73651 C23.3868196,32.73651 20.6806766,30.0316906 20.6806766,26.7079377 M38.1224986,34.8023008 L34.2971732,30.9775066 C35.0115735,29.7155254 35.4243977,28.2592903 35.4243977,26.7079377 C35.4243977,21.9065148 31.5159712,18 26.7121988,18 C21.9084264,18 18,21.9065148 18,26.7079377 C18,31.5093606 21.9084264,35.4158754 26.7121988,35.4158754 C28.5082521,35.4158754 30.179654,34.8679452 31.5682444,33.9341863 L35.2796411,37.6437678 C35.6723602,38.0349552 36.1870501,38.2318885 36.70174,38.2318885 C37.2150896,38.2318885 37.7297795,38.0349552 38.1224986,37.6437678 C38.9079369,36.8587137 38.9079369,35.5873548 38.1224986,34.8023008" id="Fill-1" fill="#000000"></path>
            </g>
        </g>
    </g>
</svg>