<?xml version="1.0" encoding="UTF-8" standalone="no"?>
<svg width="17px" height="17px" viewBox="0 0 17 17" version="1.1" xmlns="http://www.w3.org/2000/svg" xmlns:xlink="http://www.w3.org/1999/xlink">
    <!-- Generator: Sketch 39.1 (31720) - http://www.bohemiancoding.com/sketch -->
    <title>Group 5</title>
    <desc>Created with Sketch.</desc>
    <defs>
        <polygon id="path-1" points="8.48605388 16.5599019 16.9720933 16.5599019 16.9720933 0.029648323 8.48605388 0.029648323 1.44501969e-05 0.029648323 1.44501969e-05 16.5599019 8.48605388 16.5599019"></polygon>
    </defs>
    <g id="Dashboard_Cards" stroke="none" stroke-width="1" fill="none" fill-rule="evenodd">
        <g id="101_Cards_Dashboard" transform="translate(-1075.000000, -35.000000)">
            <g id="Group-38" transform="translate(981.000000, 0.000000)">
                <g id="Page-1-Copy-13" transform="translate(60.000000, 35.000000)">
                    <g id="Group-4">
                        <g id="Group-5" transform="translate(34.000000, 0.019295)">
                            <path d="M8.48582027,10.9682704 C6.97211399,10.9682704 5.74081272,9.76901453 5.74081272,8.29476106 C5.74081272,6.82050758 6.97235483,5.62129859 8.48582027,5.62129859 C9.99952655,5.62129859 11.2308278,6.82050758 11.2308278,8.29476106 C11.2308278,9.76901453 9.99952655,10.9682704 8.48582027,10.9682704 M8.48582027,4.74686071 C6.47709841,4.74686071 4.84297382,6.33839394 4.84297382,8.2945265 C4.84297382,10.2508936 6.47709841,11.8422392 8.48582027,11.8422392 C10.4943013,11.8422392 12.1284259,10.250659 12.1284259,8.2945265 C12.1284259,6.33839394 10.4943013,4.74686071 8.48582027,4.74686071" id="Fill-1" fill="#FFFFFF"></path>
                            <mask id="mask-2" fill="white">
                                <use xlink:href="#path-1"></use>
                            </mask>
                            <g id="Clip-4"></g>
                            <path d="M15.9708536,9.14594471 L14.4766551,9.3898866 C14.3016632,9.41850287 14.1603403,9.54469589 14.1160745,9.71203065 C13.980917,10.2229482 13.7720153,10.7137874 13.4944271,11.170897 C13.404306,11.319467 13.4123018,11.5058011 13.51485,11.6463023 L14.393133,12.8509061 C14.4284878,12.8991785 14.4227559,12.9646206 14.379887,13.0063722 L13.3201095,14.0385279 C13.2884636,14.069349 13.2515193,14.0740402 13.2322523,14.0740402 C13.2141414,14.0740402 13.1870714,14.0700527 13.1604349,14.0514755 L11.9258582,13.1945358 C11.7813562,13.0941912 11.589843,13.0861224 11.4370562,13.174176 C10.967762,13.4440602 10.4635465,13.6477986 9.93895615,13.7791519 C9.76738414,13.8220763 9.63800671,13.9594344 9.60843198,14.1294431 L9.35516819,15.5851664 C9.34505306,15.6434779 9.29346585,15.6859332 9.23267869,15.6859332 L7.73414512,15.6859332 C7.67330979,15.6859332 7.62172259,15.6434779 7.61165562,15.5849318 L7.36118554,14.1299122 C7.33180347,13.9594344 7.20218521,13.8220763 7.03042053,13.7789174 C6.51816106,13.6504726 6.02526484,13.4531611 5.56555592,13.1925186 C5.4955688,13.1527373 5.4175859,13.1330343 5.33979567,13.1330343 C5.24856677,13.1330343 5.15748236,13.1600556 5.07993297,13.2137228 L3.83461501,14.0751661 C3.80773764,14.0937432 3.78095661,14.0974961 3.76279753,14.0974961 C3.7435306,14.0974961 3.70663443,14.0928049 3.6749885,14.0619838 L2.61521107,13.0298281 C2.57205315,12.987842 2.56656207,12.9223998 2.60186872,12.8741275 L3.47586479,11.6802196 C3.57952087,11.5386394 3.58708314,11.3507103 3.49532439,11.2017181 C3.21571308,10.7473294 3.00329519,10.2578037 2.86476597,9.7469331 C2.81982585,9.58109952 2.67941811,9.45622004 2.50577491,9.42765069 L1.0000644,9.17897069 C0.940192421,9.1691661 0.896889998,9.11892345 0.896889998,9.05990827 L0.896889998,7.60043205 C0.896889998,7.54118231 0.940433258,7.49093966 1.00054608,7.48113507 L2.48491846,7.23874127 C2.66082552,7.20989045 2.80258195,7.08233698 2.84622155,6.91387634 C2.97810368,6.40117614 3.18358547,5.90902336 3.4572722,5.4512101 C3.54580374,5.30310922 3.53732629,5.1181825 3.43525974,4.9782912 L2.55100403,3.76519629 C2.51584188,3.71692394 2.52133296,3.65171639 2.56425004,3.60968333 L3.62402747,2.57757454 C3.6556734,2.54675342 3.69261774,2.54206223 3.71188467,2.54206223 C3.72975475,2.54206223 3.75706562,2.54586209 3.78365398,2.56462685 L5.00951234,3.41579643 C5.15492949,3.51679776 5.34783962,3.52411601 5.5008672,3.43479575 C5.96741589,3.16219068 6.46999373,2.95559066 6.99463221,2.82039055 C7.16480736,2.77666866 7.29302878,2.63987355 7.32236268,2.47080305 L7.57769765,1.00433694 C7.58776462,0.946025446 7.63915916,0.903851645 7.69994632,0.903851645 L9.19847989,0.903851645 C9.25950789,0.903851645 9.31090243,0.946260005 9.3209694,1.00480606 L9.56984995,2.45044328 C9.59928019,2.62181246 9.73019897,2.75987419 9.90340866,2.80228256 C10.4422565,2.93391736 10.958562,3.14051738 11.4382122,3.4164532 C11.5905655,3.50422537 11.7820787,3.49643799 11.9263399,3.39656255 L13.1631804,2.5411709 C13.1900578,2.52259379 13.2168388,2.51879392 13.2349979,2.51879392 C13.2542648,2.51879392 13.2912091,2.52348511 13.3230477,2.55411859 L14.3828252,3.58622737 C14.4259831,3.62826044 14.4314742,3.69370255 14.3961675,3.74197489 L13.5161987,4.94437389 C13.413217,5.0851096 13.4049322,5.27163133 13.4953422,5.42043589 C13.7726415,5.87749857 13.9816395,6.36857237 14.116508,6.87948991 C14.1607738,7.04659011 14.3016632,7.17259549 14.4762216,7.20139939 L15.9708536,7.44829674 C16.0307256,7.45810133 16.0742689,7.50839089 16.0742689,7.56735915 L16.0742689,9.02664774 L16.0745097,9.02664774 C16.0745097,9.08585056 16.0309664,9.13609321 15.9708536,9.14594471 M16.1210875,6.58591522 L14.9065003,6.38527301 C14.7810726,5.98497374 14.615666,5.59668391 14.4126407,5.22561075 L15.1273956,4.24909257 C15.4182781,3.85170184 15.372182,3.31277789 15.0180077,2.96788157 L13.9582302,1.93572587 C13.7653201,1.7478437 13.5086364,1.64416839 13.2354795,1.64416839 C13.0223391,1.64416839 12.8179652,1.70759329 12.6441293,1.82806306 L11.6389255,2.52329747 C11.2459764,2.3192776 10.8340013,2.15424152 10.4082985,2.03044101 L10.206911,0.860270486 C10.1240632,0.378813621 9.70014256,0.029648323 9.1992024,0.029648323 L7.70066883,0.029648323 C7.20035485,0.029648323 6.77667508,0.378156854 6.69320111,0.858487834 L6.48511827,2.05389696 C6.07429918,2.17877645 5.67677426,2.34212369 5.29784194,2.54164002 L4.30530609,1.85259798 C4.13118121,1.73175292 3.92608475,1.66767126 3.71231818,1.66767126 C3.43935396,1.66767126 3.18271846,1.77129965 2.9895675,1.95918183 L1.9300309,2.99133753 C1.57629008,3.33581163 1.52971228,3.87398499 1.81943873,4.27123499 L2.54040722,5.26023174 C2.34017565,5.63177401 2.17732194,6.02095517 2.05435076,6.42261488 L0.852865065,6.61875355 C0.358523833,6.69944203 1.44501969e-05,7.11226678 1.44501969e-05,7.60019749 L1.44501969e-05,9.05967372 C1.44501969e-05,9.5467131 0.357801323,9.95958476 0.851034707,10.0408831 L2.07843442,10.2434956 C2.20665584,10.6436541 2.37413362,11.0308181 2.57918191,11.399874 L1.87174844,12.3665407 C1.58091415,12.7639784 1.62701028,13.3028554 1.9811846,13.6477986 L3.04096203,14.6799543 C3.23382399,14.8678365 3.49050766,14.9715118 3.76371271,14.9715118 C3.97680494,14.9715118 4.18117889,14.90804 4.3551111,14.7876171 L5.37033376,14.0854398 C5.73963262,14.2744478 6.12569371,14.4290225 6.52341129,14.5474751 L6.72691823,15.7292798 C6.80971786,16.2107366 7.2335903,16.5599019 7.73462679,16.5599019 L9.23316037,16.5599019 C9.73323351,16.5599019 10.1569133,16.2113465 10.2405799,15.7310624 L10.4463989,14.5481319 C10.8576515,14.4259264 11.2563324,14.2648309 11.6370951,14.0670972 L12.6397461,14.7632699 C12.813871,14.8841149 13.0189193,14.9480558 13.2326858,14.9482435 C13.5056501,14.9482435 13.7623337,14.8448027 13.9554847,14.6567329 L15.0150213,13.6245772 C15.3687139,13.2802908 15.4152917,12.7418828 15.1255653,12.3446798 L14.4117737,11.3656752 C14.6147508,10.9948366 14.7803501,10.6065937 14.9058741,10.2062475 L16.1192572,10.0080448 C16.6133575,9.92740319 16.9721078,9.51453153 16.9721078,9.02664774 L16.9721078,7.56712459 C16.9721078,7.07985065 16.6142727,6.66726046 16.1210875,6.58591522" id="Fill-3" fill="#FFFFFF" mask="url(#mask-2)"></path>
                        </g>
                    </g>
                </g>
            </g>
        </g>
    </g>
</svg>